<?xml version="1.0" encoding="UTF-8"?>
<svg version="1.1" xmlns="http://www.w3.org/2000/svg" width="1024" height="1024">
<path d="M0,0 L1024,0 L1024,1024 L0,1024 Z " fill="#010001" transform="translate(0,0)"/>
<path d="M0,0 L23,0 L38,5 L61,18 L89,33 L105,42 L132,57 L154,69 L177,82 L203,96 L226,109 L254,124 L265,131 L270,135 L277,146 L280,154 L280,728 L275,726 L253,714 L232,702 L209,689 L186,676 L163,663 L140,650 L117,637 L94,624 L83,617 L76,609 L71,598 L70,593 L69,247 L65,236 L59,228 L52,222 L26,208 L8,198 L-19,183 L-43,170 L-66,157 L-90,144 L-113,131 L-141,116 L-141,392 L-136,394 L-104,411 L-81,424 L-47,442 L-18,458 L10,473 L18,478 L18,582 L12,580 L-12,567 L-35,554 L-61,540 L-79,530 L-108,514 L-137,498 L-166,482 L-195,466 L-224,450 L-240,441 L-245,437 L-252,427 L-256,414 L-256,164 L-253,152 L-247,141 L-238,131 L-231,125 L-202,109 L-173,93 L-144,77 L-115,61 L-86,45 L-57,29 L-28,13 L-12,4 Z " fill="#FEFEFE" transform="translate(500,148)"/>
</svg>
